<svg width="271" height="291" viewBox="0 0 271 291" fill="none" xmlns="http://www.w3.org/2000/svg">
<g clip-path="url(#clip0_2010_2)">
<path fill-rule="evenodd" clip-rule="evenodd" d="M63.2015 1.56398C46.5523 4.59552 21.9601 18.3677 13.6003 29.3434C9.24467 35.061 7.64461 42.3569 11.0304 41.0564C21.9136 36.8744 61.088 36.5715 73.6601 40.5714C82.126 43.2656 96.736 52.072 99.9984 56.4479C101.783 58.8418 102.847 63.5604 103.703 72.8756C104.362 80.0638 105.71 89.0416 106.697 92.8277C108.436 99.4952 108.393 99.806 105.301 102.714C103.546 104.365 100.4 109.338 98.3095 113.764C93.6221 123.69 88.8711 128.622 80.2673 132.491C76.6187 134.133 72.3679 136.885 70.8209 138.608C67.2693 142.562 0 240.605 0 241.826C0 242.323 11.0371 253.769 24.5273 267.262C45.8027 288.543 49.2974 291.534 50.8815 289.833C52.7933 287.779 117.165 180.515 120.486 173.85C121.645 171.523 122.321 166.585 122.207 161.278C121.953 149.583 123.454 145.558 134.321 128.788L143.575 114.507H149.167C152.244 114.507 159.746 113.012 165.841 111.186C171.936 109.359 178.581 107.864 180.607 107.864C189.428 107.864 195.412 114.26 196.766 125.134C197.366 129.951 198.494 131.955 202.572 135.447C210.648 142.362 219.692 147.814 226.481 149.86C232.429 151.652 233.101 151.588 238.777 148.677C243.691 146.157 246.55 142.956 254.523 131.049C266.67 112.905 270.624 104.737 270.64 97.7483C270.657 90.4152 267.835 87.1339 252.47 76.6297L239.754 67.9337L232.776 69.9649C218.226 74.2014 211.944 71.6959 202.783 58.0088C197.353 49.8959 195.523 48.4492 171.123 32.97C144.416 16.0269 131.13 9.85489 108.849 4.04024C97.5068 1.08043 73.1228 -0.242716 63.2015 1.56398Z" fill="#1228E1"/>
</g>
<defs>
<clipPath id="clip0_2010_2">
<rect width="271" height="291" fill="white"/>
</clipPath>
</defs>
</svg>
